<svg width="11" height="11" fill="none" xmlns="http://www.w3.org/2000/svg"><g clip-path="url(#clip0)" fill="#01B4E1"><path d="M10.56 3.359C9.982 2.007 8.996 1.024 7.633.442A5.406 5.406 0 0 0 5.491.003a5.35 5.35 0 0 0-2.135.44C2.004 1.021 1.014 2.004.433 3.358A5.352 5.352 0 0 0 0 5.494c0 .746.142 1.463.433 2.141a5.418 5.418 0 0 0 2.923 2.923 5.35 5.35 0 0 0 2.135.439 5.41 5.41 0 0 0 2.141-.439 5.397 5.397 0 0 0 2.929-2.923A5.38 5.38 0 0 0 11 5.494c0-.746-.147-1.454-.44-2.135zm-.877 4.565a4.825 4.825 0 0 1-1.768 1.762c-.74.432-1.552.65-2.424.65a4.658 4.658 0 0 1-1.876-.385 4.917 4.917 0 0 1-1.54-1.029 4.884 4.884 0 0 1-1.028-1.546 4.735 4.735 0 0 1-.38-1.882c0-.872.215-1.68.644-2.418a4.828 4.828 0 0 1 1.762-1.762 4.7 4.7 0 0 1 2.418-.65c.872 0 1.683.218 2.424.65a4.84 4.84 0 0 1 1.768 1.762c.433.74.65 1.546.65 2.418a4.75 4.75 0 0 1-.65 2.43z"/><path d="M5.84 5.446V2.33a.347.347 0 0 0-.35-.336c-.173 0-.33.15-.33.336v3.164c0 .006.012.03.012.048a.314.314 0 0 0 .09.27l1.799 1.8c.12.12.343.12.463 0a.324.324 0 0 0 0-.47L5.84 5.446z"/></g><defs><clipPath id="clip0"><path fill="#fff" d="M0 0h11v11H0z"/></clipPath></defs></svg>