<svg width="11" height="12" fill="none" xmlns="http://www.w3.org/2000/svg"><g clip-path="url(#clip0)"><path d="M10.397 3.163a5.505 5.505 0 0 0-4.897-3A5.504 5.504 0 0 0 .603 3.165l-.011.02A5.464 5.464 0 0 0 0 5.664c0 .89.214 1.732.592 2.477l.01.02A5.504 5.504 0 0 0 5.5 11.164a5.505 5.505 0 0 0 4.897-3c.004-.008.009-.015.012-.024A5.463 5.463 0 0 0 11 5.663c0-.89-.214-1.732-.591-2.477l-.012-.023zm-.367 4.652H7.928c.117-.59.186-1.234.2-1.913h2.382a4.979 4.979 0 0 1-.48 1.913zm-4.53 2.87c-.756 0-1.435-.97-1.82-2.392h3.64c-.385 1.422-1.064 2.392-1.82 2.392zm-1.934-2.87a10.426 10.426 0 0 1-.213-1.913h4.294c-.015.678-.09 1.325-.213 1.913H3.566zM.49 5.902h2.382c.014.68.083 1.324.2 1.913H.97a4.978 4.978 0 0 1-.48-1.913zM.97 3.51h2.102a11.03 11.03 0 0 0-.2 1.913H.49c.033-.683.2-1.329.48-1.913zM5.5.64c.756 0 1.435.97 1.82 2.391H3.68C4.065 1.611 4.744.641 5.5.641zm1.934 2.87c.123.587.198 1.234.213 1.913H3.353c.015-.679.09-1.326.213-1.913h3.868zm.694 1.913a10.997 10.997 0 0 0-.2-1.913h2.102c.28.584.447 1.23.48 1.913H8.128zm1.641-2.392H7.82C7.578 2.084 7.207 1.31 6.752.806A5.031 5.031 0 0 1 9.77 3.032zM4.247.806c-.454.504-.825 1.278-1.067 2.226H1.23A5.033 5.033 0 0 1 4.247.806zM1.231 8.293H3.18c.242.949.613 1.723 1.067 2.227a5.033 5.033 0 0 1-3.016-2.227zm5.522 2.227c.454-.504.825-1.278 1.067-2.227h1.95a5.033 5.033 0 0 1-3.017 2.227z" fill="#01B4E1"/></g><defs><clipPath id="clip0"><path fill="#fff" transform="translate(0 .163)" d="M0 0h11v11H0z"/></clipPath></defs></svg>