<svg width="13" height="14" fill="none" xmlns="http://www.w3.org/2000/svg"><g clip-path="url(#clip0)" fill="#01B4E1"><path d="M6.5.5a4.575 4.575 0 0 0-3.888 6.974L6.24 13.32a.38.38 0 0 0 .323.18h.003a.38.38 0 0 0 .324-.185l3.536-5.903a4.565 4.565 0 0 0 .644-2.342C11.07 2.55 9.02.5 6.5.5zm3.272 6.52l-3.214 5.367-3.299-5.315a3.804 3.804 0 0 1-.573-2.002c0-2.1 1.714-3.813 3.814-3.813a3.82 3.82 0 0 1 3.811 3.813c0 .689-.188 1.363-.539 1.95z"/><path d="M6.5 2.785A2.288 2.288 0 0 0 4.215 5.07 2.282 2.282 0 0 0 6.5 7.355 2.28 2.28 0 0 0 8.785 5.07 2.288 2.288 0 0 0 6.5 2.785zm0 3.814A1.53 1.53 0 0 1 4.971 5.07c0-.84.689-1.528 1.529-1.528s1.526.688 1.526 1.528c0 .83-.668 1.53-1.526 1.53z"/></g><defs><clipPath id="clip0"><path fill="#fff" transform="translate(0 .5)" d="M0 0h13v13H0z"/></clipPath></defs></svg>