<svg width="37" height="37" fill="none" xmlns="http://www.w3.org/2000/svg"><g clip-path="url(#clip0)"><g clip-path="url(#clip1)" fill="#fff"><path d="M26.744 32.661a15.524 15.524 0 0 1-3.625-.457c-4.096-.988-8.313-3.495-11.874-7.06-3.561-3.563-6.072-7.782-7.06-11.874-1.04-4.305-.298-7.988 2.088-10.374l.68-.681a3.297 3.297 0 0 1 4.659 0l3.915 3.914a3.295 3.295 0 0 1 0 4.658l-2.313 2.311c1.109 1.946 2.617 3.893 4.399 5.675s3.73 3.29 5.675 4.399l2.311-2.313a3.292 3.292 0 0 1 4.658 0l3.914 3.914a3.294 3.294 0 0 1 0 4.657l-.682.682c-1.682 1.685-4.01 2.549-6.744 2.549zM9.284 3.594a.937.937 0 0 0-.671.278l-.682.681C6.143 6.34 5.62 9.241 6.46 12.716c.888 3.682 3.175 7.508 6.438 10.77 3.264 3.263 7.089 5.548 10.771 6.44 3.477.838 6.376.316 8.163-1.47l.681-.682a.95.95 0 0 0 0-1.343L28.6 22.517a.95.95 0 0 0-1.343 0l-2.93 2.93a1.172 1.172 0 0 1-1.368.213c-2.402-1.242-4.824-3.05-7.003-5.23-2.18-2.18-3.985-4.6-5.23-7.003a1.171 1.171 0 0 1 .211-1.367l2.932-2.93a.95.95 0 0 0 0-1.343L9.955 3.872a.943.943 0 0 0-.672-.278z"/><path d="M27.996 18.573a1.172 1.172 0 0 1-1.172-1.172 7.764 7.764 0 0 0-7.754-7.755 1.172 1.172 0 1 1 0-2.344c5.568 0 10.098 4.532 10.098 10.099a1.172 1.172 0 0 1-1.172 1.172z"/><path d="M32.95 18.573a1.172 1.172 0 0 1-1.173-1.172c0-7.007-5.703-12.708-12.707-12.708a1.172 1.172 0 1 1 0-2.344c8.3 0 15.051 6.753 15.051 15.052a1.172 1.172 0 0 1-1.172 1.172z"/></g></g><defs><clipPath id="clip0"><path fill="#fff" transform="translate(.5 .5)" d="M0 0h36v36H0z"/></clipPath><clipPath id="clip1"><path fill="#fff" transform="translate(.5 .5)" d="M0 0h36v36H0z"/></clipPath></defs></svg>