<svg width="11" height="11" viewBox="0 0 11 11" fill="none" xmlns="http://www.w3.org/2000/svg">
<g clip-path="url(#clip0)">
<path d="M10.5609 3.35899C9.98099 2.00691 8.99548 1.02357 7.63211 0.442102C6.95069 0.151483 6.23678 0.0030365 5.49096 0.0030365C4.74526 0.0030365 4.03662 0.150081 3.35595 0.442102C2.00387 1.02203 1.014 2.00473 0.433026 3.35899C0.141904 4.03747 0 4.74828 0 5.49398C0 6.23982 0.141904 6.95653 0.433026 7.63515C1.014 8.9894 2.004 9.978 3.35595 10.5581C4.03675 10.8501 4.74524 10.997 5.49096 10.997C6.23668 10.997 6.95069 10.8485 7.63201 10.5581C8.99538 9.97658 9.98088 8.9871 10.561 7.63515C10.853 6.95435 11 6.23982 11 5.49398C11 4.74828 10.8531 4.03977 10.5609 3.35899ZM9.68295 7.92384C9.2512 8.66428 8.65971 9.25168 7.91477 9.68598C7.17434 10.1177 6.36305 10.3355 5.49109 10.3355C4.83558 10.3355 4.21009 10.2092 3.61461 9.95056C3.01916 9.69202 2.50503 9.35214 2.07496 8.92218C1.64488 8.4921 1.30257 7.97297 1.0466 7.37649C0.791389 6.78218 0.667711 6.14963 0.667711 5.49399C0.667711 4.6219 0.881977 3.81473 1.3113 3.07635C1.74215 2.33527 2.33376 1.74724 3.07344 1.31419C3.81299 0.881167 4.61901 0.664582 5.49096 0.664582C6.36305 0.664582 7.17419 0.882443 7.91464 1.31419C8.65959 1.74851 9.2498 2.33653 9.68282 3.07633C10.1158 3.81601 10.3323 4.6219 10.3323 5.49398C10.3323 6.36609 10.1173 7.17876 9.68295 7.92384Z" fill="#01B4E1"/>
<path d="M5.8398 5.44589V2.33049C5.8398 2.14407 5.67737 1.9937 5.49093 1.9937C5.31657 1.9937 5.16016 2.14407 5.16016 2.33049V5.49399C5.16016 5.50002 5.17222 5.52415 5.17222 5.54212C5.16016 5.65039 5.19032 5.7406 5.26243 5.81284L7.06077 7.61106C7.1811 7.73139 7.40358 7.73139 7.52383 7.61106C7.66212 7.47275 7.65302 7.27207 7.52383 7.14196L5.8398 5.44589Z" fill="#01B4E1"/>
</g>
<defs>
<clipPath id="clip0">
<rect width="11" height="11" fill="white"/>
</clipPath>
</defs>
</svg>
