<svg width="68" height="67" viewBox="0 0 68 67" fill="none" xmlns="http://www.w3.org/2000/svg">
<rect x="0.535156" y="67" width="67" height="67" transform="rotate(-90 0.535156 67)" fill="white" fill-opacity="0.4"/>
<path d="M48.6837 30.7987L26.2805 30.7987L31.6262 25.3655C32.0946 24.8898 32.0946 24.1181 31.6262 23.6425C31.1579 23.1666 30.3987 23.1666 29.931 23.6425L22.5387 31.1556C22.0704 31.6313 22.0704 32.403 22.5387 32.8785L29.931 40.3919C30.1651 40.63 30.4719 40.7488 30.7786 40.7488C31.0854 40.7488 31.3921 40.63 31.6262 40.3919C32.0946 39.9162 32.0946 39.1446 31.6262 38.6691L26.2805 33.2355L48.6837 33.2355C49.3457 33.2355 49.8826 32.6899 49.8826 32.0171C49.8826 31.3442 49.3458 30.7987 48.6837 30.7987Z" fill="white"/>
</svg>
