<svg width="67" height="67" viewBox="0 0 67 67" fill="none" xmlns="http://www.w3.org/2000/svg">
<rect x="67" width="67" height="67" transform="rotate(90 67 0)" fill="white" fill-opacity="0.4"/>
<path d="M18.8514 36.2013L41.2545 36.2013L35.9088 41.6345C35.4405 42.1102 35.4405 42.8819 35.9088 43.3575C36.3771 43.8334 37.1364 43.8334 37.604 43.3575L44.9963 35.8444C45.4646 35.3687 45.4646 34.597 44.9963 34.1215L37.604 26.6081C37.3699 26.37 37.0631 26.2512 36.7564 26.2512C36.4497 26.2512 36.1429 26.37 35.9088 26.6081C35.4405 27.0838 35.4405 27.8554 35.9088 28.3309L41.2545 33.7645L18.8514 33.7645C18.1893 33.7645 17.6525 34.3101 17.6525 34.9829C17.6525 35.6558 18.1893 36.2013 18.8514 36.2013Z" fill="white"/>
</svg>
