<svg width="13" height="14" viewBox="0 0 13 14" fill="none" xmlns="http://www.w3.org/2000/svg">
<g clip-path="url(#clip0)">
<path d="M6.5 0.5C3.97993 0.5 1.92969 2.55024 1.92969 5.07031C1.92969 5.92176 2.16554 6.7527 2.61191 7.47359L6.23985 13.32C6.30934 13.432 6.43178 13.5 6.56345 13.5C6.56447 13.5 6.56546 13.5 6.56647 13.5C6.69929 13.499 6.82198 13.4288 6.8902 13.3149L10.4257 7.41184C10.8474 6.70618 11.0703 5.8965 11.0703 5.07031C11.0703 2.55024 9.02007 0.5 6.5 0.5ZM9.77199 7.02077L6.55769 12.3875L3.25932 7.07226C2.88778 6.47223 2.68633 5.77998 2.68633 5.07031C2.68633 2.97025 4.39994 1.25664 6.5 1.25664C8.60006 1.25664 10.3111 2.97025 10.3111 5.07031C10.3111 5.75893 10.123 6.43348 9.77199 7.02077Z" fill="#01B4E1"/>
<path d="M6.5 2.78516C5.23996 2.78516 4.21484 3.81028 4.21484 5.07031C4.21484 6.3223 5.22328 7.35547 6.5 7.35547C7.79246 7.35547 8.78516 6.30854 8.78516 5.07031C8.78516 3.81028 7.76004 2.78516 6.5 2.78516ZM6.5 6.59883C5.65558 6.59883 4.97148 5.91244 4.97148 5.07031C4.97148 4.23029 5.65998 3.5418 6.5 3.5418C7.34002 3.5418 8.02598 4.23029 8.02598 5.07031C8.02598 5.90015 7.3578 6.59883 6.5 6.59883Z" fill="#01B4E1"/>
</g>
<defs>
<clipPath id="clip0">
<rect width="13" height="13" fill="white" transform="translate(0 0.5)"/>
</clipPath>
</defs>
</svg>
