<svg width="8" height="9" viewBox="0 0 8 9" fill="none" xmlns="http://www.w3.org/2000/svg">
<g clip-path="url(#clip0)">
<path d="M4.15686 5.73038L7.96648 0.96792C8.00667 0.917504 8.01086 0.852143 7.97829 0.798278C7.94534 0.744249 7.88057 0.710419 7.80971 0.710419L0.190485 0.710418C0.119626 0.710418 0.0546718 0.744248 0.021719 0.798278C0.0072422 0.822254 3.80866e-06 0.84853 3.80752e-06 0.874641C3.80609e-06 0.907322 0.0114326 0.939838 0.0337191 0.96792L3.84333 5.73038C3.87895 5.77489 3.93743 5.80133 4.0001 5.80133C4.06277 5.80133 4.12124 5.77472 4.15686 5.73038Z" fill="white"/>
</g>
<defs>
<clipPath id="clip0">
<rect width="8" height="8" fill="white" transform="translate(8 0.662781) rotate(90)"/>
</clipPath>
</defs>
</svg>
