<svg width="37" height="37" viewBox="0 0 37 37" fill="none" xmlns="http://www.w3.org/2000/svg">
<g clip-path="url(#clip0)">
<g clip-path="url(#clip1)">
<path d="M26.7445 32.661C25.5224 32.6519 24.3057 32.4985 23.1195 32.204C19.0234 31.2157 14.8055 28.7086 11.2445 25.1446C7.68359 21.5805 5.17343 17.3618 4.18515 13.2696C3.14452 8.96489 3.88671 5.28207 6.27265 2.89614L6.9539 2.21489C7.572 1.59803 8.40957 1.25159 9.28281 1.25159C10.1561 1.25159 10.9936 1.59803 11.6117 2.21489L15.5266 6.12895C16.1438 6.74684 16.4905 7.58449 16.4905 8.45786C16.4905 9.33122 16.1438 10.1689 15.5266 10.7868L13.2141 13.0985C14.3227 15.0438 15.8305 16.9907 17.6125 18.7727C19.3945 20.5547 21.343 22.0633 23.2875 23.1719L25.5992 20.8594C25.905 20.5535 26.2681 20.3108 26.6677 20.1453C27.0673 19.9797 27.4956 19.8945 27.9281 19.8945C28.3607 19.8945 28.789 19.9797 29.1886 20.1453C29.5882 20.3108 29.9512 20.5535 30.257 20.8594L34.1711 24.7735C34.7885 25.3911 35.1353 26.2287 35.1353 27.102C35.1353 27.9753 34.7885 28.8129 34.1711 29.4305L33.4891 30.1118C31.807 31.7969 29.4789 32.661 26.7445 32.661ZM9.28281 3.59379C9.15807 3.59317 9.03446 3.61745 8.91923 3.66521C8.80399 3.71297 8.69945 3.78324 8.61171 3.87192L7.92968 4.55317C6.14296 6.33989 5.62109 9.24067 6.46015 12.7165C7.34843 16.3985 9.63515 20.2243 12.8984 23.4868C16.1617 26.7493 19.9867 29.0336 23.6695 29.9251C27.1461 30.7641 30.0453 30.2422 31.832 28.4555L32.5133 27.7743C32.6913 27.5961 32.7913 27.3546 32.7913 27.1028C32.7913 26.851 32.6913 26.6094 32.5133 26.4313L28.6 22.5172C28.4219 22.3392 28.1803 22.2393 27.9285 22.2393C27.6767 22.2393 27.4352 22.3392 27.257 22.5172L24.3266 25.4477C24.1507 25.6236 23.9235 25.7391 23.6777 25.7773C23.4319 25.8155 23.1803 25.7745 22.9594 25.6602C20.557 24.418 18.1352 22.6094 15.9555 20.4297C13.7758 18.25 11.9711 15.8297 10.7258 13.4274C10.6114 13.2065 10.5703 12.955 10.6084 12.7092C10.6464 12.4634 10.7617 12.2361 10.9375 12.0602L13.8687 9.12973C14.0467 8.95159 14.1467 8.71007 14.1467 8.45825C14.1467 8.20642 14.0467 7.9649 13.8687 7.78676L9.95468 3.87192C9.86668 3.7834 9.76197 3.71323 9.64663 3.66549C9.5313 3.61774 9.40763 3.59337 9.28281 3.59379Z" fill="white"/>
<path d="M27.9961 18.5727C27.6853 18.5727 27.3872 18.4492 27.1675 18.2294C26.9477 18.0097 26.8242 17.7116 26.8242 17.4008C26.8219 15.345 26.0043 13.374 24.5507 11.9202C23.0971 10.4664 21.1261 9.6486 19.0703 9.64612C18.7595 9.64612 18.4614 9.52265 18.2417 9.30288C18.0219 9.08311 17.8984 8.78504 17.8984 8.47424C17.8984 8.16344 18.0219 7.86537 18.2417 7.6456C18.4614 7.42583 18.7595 7.30237 19.0703 7.30237C24.6383 7.30237 29.168 11.8336 29.168 17.4008C29.168 17.7116 29.0445 18.0097 28.8247 18.2294C28.605 18.4492 28.3069 18.5727 27.9961 18.5727Z" fill="white"/>
<path d="M32.9492 18.5727C32.6384 18.5727 32.3403 18.4492 32.1206 18.2294C31.9008 18.0097 31.7773 17.7116 31.7773 17.4008C31.7773 10.3938 26.0742 4.69299 19.0703 4.69299C18.7595 4.69299 18.4614 4.56953 18.2417 4.34976C18.0219 4.12999 17.8984 3.83192 17.8984 3.52112C17.8984 3.21032 18.0219 2.91225 18.2417 2.69248C18.4614 2.47271 18.7595 2.34924 19.0703 2.34924C27.3695 2.34924 34.1211 9.10158 34.1211 17.4008C34.1211 17.7116 33.9976 18.0097 33.7779 18.2294C33.5581 18.4492 33.26 18.5727 32.9492 18.5727Z" fill="white"/>
</g>
</g>
<defs>
<clipPath id="clip0">
<rect width="36" height="36" fill="white" transform="translate(0.5 0.5)"/>
</clipPath>
<clipPath id="clip1">
<rect width="36" height="36" fill="white" transform="translate(0.5 0.5)"/>
</clipPath>
</defs>
</svg>
